<svg  viewBox="0 0 16 15" fill="none" xmlns="http://www.w3.org/2000/svg">
<path d="M10.0032 14V10.6667C10.0032 10.4899 9.93298 10.3203 9.80796 10.1953C9.68294 10.0703 9.51337 10 9.33656 10H6.66989C6.49308 10 6.32351 10.0703 6.19849 10.1953C6.07346 10.3203 6.00322 10.4899 6.00322 10.6667V14M11.8526 6.87337C11.7136 6.74033 11.5286 6.66607 11.3362 6.66607C11.1438 6.66607 10.9589 6.74033 10.8199 6.87337C10.5099 7.16905 10.098 7.33401 9.66956 7.33401C9.24116 7.33401 8.82922 7.16905 8.51922 6.87337C8.38028 6.74053 8.19545 6.66639 8.00322 6.66639C7.81099 6.66639 7.62617 6.74053 7.48722 6.87337C7.1772 7.16925 6.76511 7.33433 6.33656 7.33433C5.908 7.33433 5.49592 7.16925 5.18589 6.87337C5.04691 6.74033 4.86195 6.66607 4.66956 6.66607C4.47717 6.66607 4.2922 6.74033 4.15322 6.87337C3.85379 7.15912 3.45874 7.32322 3.04497 7.33374C2.63121 7.34426 2.22833 7.20045 1.91476 6.93029C1.60119 6.66014 1.39935 6.28297 1.34855 5.8722C1.29774 5.46143 1.40159 5.04646 1.63989 4.70804L3.56589 1.91871C3.68809 1.73838 3.85262 1.59074 4.04508 1.4887C4.23753 1.38667 4.45206 1.33333 4.66989 1.33337H11.3366C11.5538 1.33329 11.7677 1.38627 11.9597 1.4877C12.1518 1.58913 12.3162 1.73594 12.4386 1.91537L14.3686 4.71004C14.6069 5.04872 14.7106 5.46402 14.6595 5.875C14.6084 6.28598 14.4061 6.66321 14.092 6.93317C13.7779 7.20313 13.3746 7.34649 12.9606 7.33531C12.5466 7.32414 12.1516 7.15922 11.8526 6.87271"  stroke-width="1.5" stroke-linecap="round" stroke-linejoin="round"/>
<path d="M2.67188 7.30005V12.6667C2.67188 13.0203 2.81235 13.3595 3.0624 13.6095C3.31245 13.8596 3.65159 14 4.00521 14H12.0052C12.3588 14 12.698 13.8596 12.948 13.6095C13.1981 13.3595 13.3385 13.0203 13.3385 12.6667V7.30005"  stroke-width="1.5" stroke-linecap="round" stroke-linejoin="round"/>
</svg>
