<svg  viewBox="0 0 24 25" fill="none" xmlns="http://www.w3.org/2000/svg">
<path d="M12.67 2.71704L21.17 7.46704C21.4195 7.59161 21.6294 7.78328 21.776 8.02051C21.9226 8.25775 22.0002 8.53116 22 8.81004V10.25C22 10.94 21.44 11.5 20.75 11.5H20V19.5H21C21.2652 19.5 21.5196 19.6054 21.7071 19.7929C21.8946 19.9805 22 20.2348 22 20.5C22 20.7653 21.8946 21.0196 21.7071 21.2071C21.5196 21.3947 21.2652 21.5 21 21.5H3C2.73478 21.5 2.48043 21.3947 2.29289 21.2071C2.10536 21.0196 2 20.7653 2 20.5C2 20.2348 2.10536 19.9805 2.29289 19.7929C2.48043 19.6054 2.73478 19.5 3 19.5H4V11.5H3.25C2.56 11.5 2 10.94 2 10.25V8.81004C2 8.28804 2.27 7.80804 2.706 7.53604L11.329 2.71704C11.5373 2.61284 11.7671 2.55859 12 2.55859C12.2329 2.55859 12.4617 2.61284 12.67 2.71704ZM18 11.5H6V19.5H9V13.5H11V19.5H13V13.5H15V19.5H18V11.5ZM12 4.61804L4 9.11804V9.50004H20V9.11804L12 4.61804ZM12 6.50004C12.2652 6.50004 12.5196 6.6054 12.7071 6.79294C12.8946 6.98047 13 7.23483 13 7.50004C13 7.76526 12.8946 8.01961 12.7071 8.20715C12.5196 8.39469 12.2652 8.50004 12 8.50004C11.7348 8.50004 11.4804 8.39469 11.2929 8.20715C11.1054 8.01961 11 7.76526 11 7.50004C11 7.23483 11.1054 6.98047 11.2929 6.79294C11.4804 6.6054 11.7348 6.50004 12 6.50004Z" fill="#FBFFE6"/>
</svg>
