<svg  viewBox="0 0 16 16" fill="none" xmlns="http://www.w3.org/2000/svg">
<path d="M3.2027 8.00004V12.796C3.2027 13.1593 3.34692 13.5078 3.60369 13.7648C3.86045 14.0218 4.20874 14.1664 4.57203 14.1667H11.4254C11.7888 14.1665 12.1372 14.022 12.3941 13.765C12.651 13.508 12.7954 13.1594 12.7954 12.796V8.00004M4.61403 4.57404C4.0107 3.80671 3.88736 1.83337 5.94336 1.83337C8.2727 1.83337 7.9647 4.57404 7.9987 4.57404M7.9987 4.57404C8.0327 4.57404 7.7587 1.83337 10.054 1.83337C12.11 1.83337 11.9727 3.80671 11.37 4.57404M7.9987 4.57404V14.1667M13.1374 4.57404H2.86003C2.29203 4.57404 1.83203 5.03404 1.83203 5.60204V6.97204C1.83203 7.54004 2.29203 8.00004 2.86003 8.00004H13.1374C13.7054 8.00004 14.1654 7.54004 14.1654 6.97204V5.60204C14.1654 5.03404 13.7054 4.57404 13.1374 4.57404Z"  stroke-linecap="round" stroke-linejoin="round"/>
</svg>
