<svg  viewBox="0 0 24 25" fill="none" xmlns="http://www.w3.org/2000/svg">
<g clip-path="url(#clip0_319_8034)">
<path d="M23.641 15.4019C22.0377 21.8339 15.521 25.7439 9.09824 24.1405C2.66605 22.5371 -1.24389 16.0208 0.359518 9.59805C1.96283 3.16605 8.47002 -0.743887 14.9022 0.859519C21.325 2.45346 25.2444 8.96983 23.641 15.4019Z" fill="url(#paint0_linear_319_8034)"/>
<path d="M17.7141 11.0047C17.9484 9.41099 16.7391 8.54849 15.0703 7.97661L15.6141 5.81099L14.3016 5.48286L13.7766 7.59224C13.4297 7.50786 13.0734 7.42349 12.7172 7.34849L13.2422 5.22974L11.9297 4.90161L11.3953 7.05786C11.1047 6.99224 10.8234 6.92661 10.5516 6.86099V6.85161L8.73281 6.40161L8.38594 7.80786C8.38594 7.80786 9.36094 8.03286 9.34219 8.04224C9.87656 8.17349 9.97031 8.52974 9.95156 8.81099L9.33281 11.2766C9.37031 11.286 9.41719 11.2954 9.47344 11.3235C9.42656 11.3141 9.37969 11.3047 9.33281 11.286L8.47031 14.736C8.40469 14.8954 8.23594 15.1391 7.87031 15.0454C7.87969 15.0641 6.91406 14.811 6.91406 14.811L6.25781 16.3204L7.97344 16.7516C8.29219 16.836 8.60156 16.911 8.91094 16.9954L8.36719 19.1797L9.67969 19.5079L10.2234 17.3422C10.5797 17.436 10.9359 17.5297 11.2734 17.6141L10.7391 19.7704L12.0516 20.0985L12.5953 17.9141C14.8453 18.336 16.5328 18.1672 17.2359 16.1329C17.8078 14.5016 17.2078 13.5547 16.0266 12.936C16.8984 12.7391 17.5453 12.1672 17.7141 11.0047ZM14.7047 15.2235C14.3016 16.8547 11.5453 15.9735 10.6547 15.7485L11.3766 12.8516C12.2672 13.0766 15.1359 13.5172 14.7047 15.2235ZM15.1172 10.9766C14.7422 12.4672 12.4547 11.7079 11.7141 11.5204L12.3703 8.89536C13.1109 9.08286 15.5016 9.42974 15.1172 10.9766Z" fill="white"/>
</g>
<defs>
<linearGradient id="paint0_linear_319_8034" x1="1199.35" y1="-0.0759994" x2="1199.35" y2="2400.26" gradientUnits="userSpaceOnUse">
<stop stop-color="#F9AA4B"/>
<stop offset="1" stop-color="#F7931A"/>
</linearGradient>
<clipPath id="clip0_319_8034">
<rect width="24" height="24" fill="white" transform="translate(0 0.5)"/>
</clipPath>
</defs>
</svg>
