<svg viewBox="0 0 25 24" fill="none" xmlns="http://www.w3.org/2000/svg">
<path d="M16.0747 20.4253C20.7279 18.451 22.8995 13.0785 20.9253 8.42531C18.951 3.77217 13.5784 1.60052 8.92526 3.57479C4.27212 5.54907 2.10047 10.9217 4.07474 15.5748C6.04902 20.2279 11.4216 22.3996 16.0747 20.4253Z" fill="#F7D320"/>
<path d="M15.4872 19.0695C19.3924 17.419 21.2202 12.9151 19.5697 9.00995C17.9192 5.10474 13.4153 3.27696 9.51014 4.92748C5.60494 6.578 3.77716 11.0818 5.42768 14.987C7.0782 18.8922 11.582 20.72 15.4872 19.0695Z" fill="#EB8904"/>
<path d="M19.5101 13.1627C20.146 9.29161 17.5234 5.63798 13.6523 5.00208C9.78123 4.36619 6.12759 6.98883 5.4917 10.8599C4.8558 14.731 7.47844 18.3846 11.3495 19.0205C15.2206 19.6564 18.8742 17.0338 19.5101 13.1627Z" fill="#F5B528"/>
</svg>
