<svg  viewBox="0 0 16 14" fill="none" xmlns="http://www.w3.org/2000/svg">
<path d="M13.5446 1.91325C12.5073 1.43714 11.4126 1.09764 10.288 0.903254C10.2777 0.901255 10.2671 0.902568 10.2576 0.907001C10.2481 0.911434 10.2403 0.918759 10.2353 0.92792C10.0953 1.17792 9.93929 1.50392 9.82995 1.76125C8.61757 1.57711 7.38434 1.57711 6.17195 1.76125C6.05028 1.47612 5.91296 1.19792 5.76062 0.92792C5.75537 0.918965 5.74752 0.911813 5.73812 0.907409C5.72871 0.903005 5.7182 0.901556 5.70795 0.903254C4.58319 1.09724 3.48844 1.43676 2.45129 1.91325C2.44251 1.91694 2.43506 1.92322 2.42995 1.93125C0.355288 5.03059 -0.213379 8.05325 0.0659542 11.0379C0.0666327 11.0453 0.0688156 11.0525 0.0723691 11.0591C0.0759227 11.0656 0.0807722 11.0713 0.0866209 11.0759C1.29435 11.9707 2.64536 12.6538 4.08195 13.0959C4.09208 13.0989 4.10286 13.0986 4.11286 13.0953C4.12286 13.092 4.13161 13.0857 4.13795 13.0773C4.44595 12.6573 4.72062 12.2139 4.95529 11.7479C4.95856 11.7416 4.96046 11.7346 4.96084 11.7274C4.96122 11.7203 4.96008 11.7131 4.9575 11.7064C4.95491 11.6998 4.95095 11.6937 4.94585 11.6887C4.94076 11.6837 4.93466 11.6798 4.92795 11.6773C4.4969 11.5123 4.0796 11.3135 3.67995 11.0826C3.67263 11.0784 3.66646 11.0724 3.66201 11.0652C3.65755 11.058 3.65494 11.0498 3.65442 11.0413C3.65389 11.0329 3.65546 11.0245 3.65898 11.0168C3.66251 11.0091 3.66788 11.0024 3.67462 10.9973C3.75878 10.9343 3.84147 10.8694 3.92262 10.8026C3.92972 10.7968 3.93828 10.7932 3.94734 10.792C3.95641 10.7908 3.96562 10.7922 3.97395 10.7959C6.59262 11.9913 9.42729 11.9913 12.0153 10.7959C12.0237 10.792 12.033 10.7906 12.0422 10.7918C12.0514 10.793 12.0601 10.7967 12.0673 10.8026C12.1473 10.8679 12.2313 10.9346 12.316 10.9973C12.3226 11.0023 12.328 11.0089 12.3315 11.0164C12.335 11.024 12.3367 11.0323 12.3363 11.0406C12.3359 11.049 12.3335 11.0571 12.3292 11.0643C12.325 11.0715 12.3191 11.0775 12.312 11.0819C11.9132 11.315 11.4955 11.5139 11.0633 11.6766C11.0566 11.6792 11.0504 11.6831 11.0454 11.6882C11.0403 11.6933 11.0363 11.6994 11.0337 11.7062C11.0311 11.7129 11.03 11.7201 11.0304 11.7273C11.0308 11.7345 11.0327 11.7415 11.036 11.7479C11.276 12.2133 11.5506 12.6559 11.8526 13.0766C11.8588 13.0852 11.8676 13.0916 11.8776 13.0949C11.8877 13.0983 11.8985 13.0984 11.9086 13.0953C13.3476 12.6545 14.7008 11.9713 15.91 11.0753C15.9158 11.0711 15.9208 11.0657 15.9245 11.0595C15.9281 11.0533 15.9305 11.0464 15.9313 11.0393C16.2646 7.58792 15.3726 4.58992 13.5653 1.93259C13.5611 1.92363 13.5537 1.91718 13.5446 1.91325ZM5.34662 9.21992C4.55795 9.21992 3.90862 8.49659 3.90862 7.60725C3.90862 6.71859 4.54595 5.99459 5.34662 5.99459C6.15329 5.99459 6.79729 6.72525 6.78462 7.60792C6.78462 8.49659 6.14729 9.21992 5.34662 9.21992ZM10.6633 9.21992C9.87462 9.21992 9.22529 8.49659 9.22529 7.60725C9.22529 6.71859 9.86195 5.99459 10.6633 5.99459C11.47 5.99459 12.114 6.72525 12.1013 7.60792C12.1013 8.49659 11.4706 9.21992 10.6633 9.21992Z" fill="currentColor"/>
</svg>
