<svg width="13" height="22" viewBox="0 0 13 22" fill="none" xmlns="http://www.w3.org/2000/svg">
<path fill-rule="evenodd" clip-rule="evenodd" d="M3.47719 5.83998C2.81599 6.33558 2.51719 6.92958 2.51719 7.48398C2.51719 8.03838 2.81599 8.63358 3.47719 9.13038C4.13959 9.62718 5.10919 9.97038 6.23119 9.97038C6.54945 9.97038 6.85467 10.0968 7.07972 10.3218C7.30476 10.5469 7.43119 10.8521 7.43119 11.1704C7.43119 11.4886 7.30476 11.7939 7.07972 12.0189C6.85467 12.2439 6.54945 12.3704 6.23119 12.3704C4.63999 12.3704 3.15319 11.888 2.03719 11.0504C0.921187 10.2128 0.117188 8.96478 0.117188 7.48518C0.117188 6.00558 0.921187 4.75638 2.03719 3.91878C3.15319 3.08238 4.64119 2.59998 6.23119 2.59998C8.69479 2.59998 11.024 3.77958 11.9504 5.74398C12.0176 5.88659 12.0561 6.04105 12.0636 6.19853C12.0711 6.35601 12.0475 6.51343 11.9942 6.6618C11.9409 6.81017 11.8589 6.94658 11.7528 7.06325C11.6468 7.17992 11.5188 7.27456 11.3762 7.34178C11.2336 7.40899 11.0791 7.44745 10.9216 7.45497C10.7642 7.46248 10.6067 7.43891 10.4584 7.38559C10.31 7.33227 10.1736 7.25025 10.0569 7.14421C9.94024 7.03817 9.8456 6.91019 9.77839 6.76758C9.35839 5.87118 8.04799 4.99998 6.23239 4.99998C5.11039 4.99998 4.13959 5.34318 3.47719 5.83998Z" fill="#F7D320"/>
<path fill-rule="evenodd" clip-rule="evenodd" d="M8.58781 16.4995C9.24901 16.004 9.54661 15.41 9.54661 14.8556C9.54661 14.3012 9.24901 13.7048 8.58661 13.2092C7.92541 12.7123 6.95461 12.3692 5.83381 12.3692C5.51555 12.3692 5.21033 12.2427 4.98529 12.0177C4.76024 11.7926 4.63381 11.4874 4.63381 11.1692C4.63381 10.8509 4.76024 10.5457 4.98529 10.3206C5.21033 10.0956 5.51555 9.96915 5.83381 9.96915C7.42501 9.96915 8.91181 10.4516 10.0278 11.2892C11.1438 12.1268 11.9466 13.3748 11.9466 14.8544C11.9466 16.334 11.1438 17.5832 10.0266 18.4195C8.91061 19.2572 7.42501 19.7396 5.83381 19.7396C3.37021 19.7396 1.03981 18.5599 0.114614 16.5943C-0.0211237 16.3065 -0.0369479 15.9765 0.070623 15.677C0.178194 15.3774 0.400348 15.1329 0.688214 14.9972C0.97608 14.8614 1.30608 14.8456 1.60561 14.9532C1.90514 15.0607 2.14968 15.2829 2.28541 15.5708C2.70781 16.4683 4.01821 17.3396 5.83381 17.3396C6.95581 17.3396 7.92541 16.9964 8.58781 16.4995ZM5.99941 0.199951C6.31767 0.199951 6.6229 0.326379 6.84794 0.551423C7.07299 0.776467 7.19941 1.08169 7.19941 1.39995V2.59995C7.19941 2.91821 7.07299 3.22344 6.84794 3.44848C6.6229 3.67352 6.31767 3.79995 5.99941 3.79995C5.68115 3.79995 5.37593 3.67352 5.15089 3.44848C4.92584 3.22344 4.79941 2.91821 4.79941 2.59995V1.39995C4.79941 1.08169 4.92584 0.776467 5.15089 0.551423C5.37593 0.326379 5.68115 0.199951 5.99941 0.199951Z" fill="#F7D320"/>
<path fill-rule="evenodd" clip-rule="evenodd" d="M6.00078 18.2C6.31904 18.2 6.62427 18.3264 6.84931 18.5514C7.07435 18.7765 7.20078 19.0817 7.20078 19.4V20.6C7.20078 20.9182 7.07435 21.2234 6.84931 21.4485C6.62427 21.6735 6.31904 21.8 6.00078 21.8C5.68252 21.8 5.3773 21.6735 5.15225 21.4485C4.92721 21.2234 4.80078 20.9182 4.80078 20.6V19.4C4.80078 19.0817 4.92721 18.7765 5.15225 18.5514C5.3773 18.3264 5.68252 18.2 6.00078 18.2Z" fill="#F7D320"/>
</svg>
