<svg width="16" height="16" viewBox="0 0 16 16" fill="none" xmlns="http://www.w3.org/2000/svg">
<path fill-rule="evenodd" clip-rule="evenodd" d="M7.99742 3.16597C6.13242 3.16597 4.66108 3.26531 3.68675 3.35931C3.05508 3.42031 2.56808 3.81331 2.41142 4.37331C2.07675 5.56764 1.64008 7.69164 1.49942 10.9483C1.45108 12.068 2.10442 12.833 2.95008 12.833C3.11564 12.8328 3.27008 12.828 3.41342 12.8186C4.12408 12.7736 4.71675 12.2013 5.01075 11.3056L5.02408 11.2653C5.18908 10.761 5.57942 10.2646 6.20608 10.1046C6.61875 9.99931 7.21608 9.89964 7.99742 9.89964C8.77875 9.89964 9.37608 9.99964 9.78875 10.1046C10.4154 10.2646 10.8054 10.761 10.9708 11.2653L10.9841 11.3056C11.2774 12.2016 11.8708 12.7736 12.5811 12.819C12.7244 12.8279 12.8789 12.8325 13.0444 12.833C13.8904 12.833 14.5434 12.068 14.4951 10.9483C14.3544 7.69164 13.9178 5.56764 13.5834 4.37331C13.4268 3.81331 12.9394 3.41997 12.3081 3.35931C11.3334 3.26531 9.86208 3.16597 7.99742 3.16597ZM3.55875 2.03231C4.57108 1.93464 6.08542 1.83264 7.99742 1.83264C9.90942 1.83264 11.4234 1.93464 12.4361 2.03231C13.5608 2.14064 14.5478 2.87231 14.8674 4.01364C15.2314 5.31398 15.6824 7.53997 15.8274 10.891C15.8961 12.4816 14.9084 14.1663 13.0444 14.1663C12.8506 14.1661 12.6681 14.1605 12.4968 14.1496C11.0311 14.0563 10.1034 12.8996 9.71708 11.721L9.70375 11.6806C9.64242 11.4933 9.53708 11.4166 9.45908 11.3966C9.15075 11.318 8.66375 11.233 7.99742 11.233C7.33075 11.233 6.84408 11.318 6.53575 11.3966C6.45775 11.4166 6.35242 11.4933 6.29075 11.6806L6.27742 11.7206C5.89142 12.8996 4.96375 14.0566 3.49775 14.1493C3.32664 14.1604 3.14408 14.1661 2.95008 14.1663C1.08608 14.1666 0.0987508 12.4816 0.167417 10.8906C0.312084 7.53998 0.763418 5.31397 1.12742 4.01397C1.44708 2.87231 2.43408 2.14064 3.55875 2.03231ZM5.06508 4.74464C5.2419 4.74464 5.41146 4.81488 5.53649 4.9399C5.66151 5.06493 5.73175 5.2345 5.73175 5.41131V6.03898H6.36842C6.54523 6.03898 6.7148 6.10921 6.83982 6.23424C6.96485 6.35926 7.03508 6.52883 7.03508 6.70564C7.03508 6.88245 6.96485 7.05202 6.83982 7.17705C6.7148 7.30207 6.54523 7.37231 6.36842 7.37231H5.73175V7.99997C5.73175 8.17679 5.66151 8.34636 5.53649 8.47138C5.41146 8.5964 5.2419 8.66664 5.06508 8.66664C4.88827 8.66664 4.7187 8.5964 4.59368 8.47138C4.46866 8.34636 4.39842 8.17679 4.39842 7.99997V7.37264H3.76208C3.58527 7.37264 3.4157 7.3024 3.29068 7.17738C3.16566 7.05236 3.09542 6.88279 3.09542 6.70598C3.09542 6.52916 3.16566 6.35959 3.29068 6.23457C3.4157 6.10955 3.58527 6.03931 3.76208 6.03931H4.39808V5.41164C4.39808 5.23483 4.46832 5.06526 4.59335 4.94024C4.71837 4.81521 4.88794 4.74497 5.06475 4.74497M10.9284 7.17597C11.1052 7.17597 11.2748 7.24621 11.3998 7.37124C11.5248 7.49626 11.5951 7.66583 11.5951 7.84264V7.99964C11.5951 8.17645 11.5248 8.34602 11.3998 8.47105C11.2748 8.59607 11.1052 8.66631 10.9284 8.66631C10.7516 8.66631 10.582 8.59607 10.457 8.47105C10.332 8.34602 10.2618 8.17645 10.2618 7.99964V7.84297C10.2618 7.66616 10.332 7.49659 10.457 7.37157C10.582 7.24655 10.7516 7.17597 10.9284 7.17597ZM9.62575 6.03964C9.44894 6.03964 9.27937 6.10988 9.15435 6.2349C9.02932 6.35993 8.95908 6.5295 8.95908 6.70631C8.95908 6.88312 9.02932 7.05269 9.15435 7.17771C9.27937 7.30274 9.44894 7.37297 9.62575 7.37297H9.78508C9.9619 7.37297 10.1315 7.30274 10.2565 7.17771C10.3815 7.05269 10.4518 6.88312 10.4518 6.70631C10.4518 6.5295 10.3815 6.35993 10.2565 6.2349C10.1315 6.10988 9.9619 6.03964 9.78508 6.03964H9.62575ZM10.9284 4.74531C11.1052 4.74531 11.2748 4.81555 11.3998 4.94057C11.5248 5.06559 11.5951 5.23516 11.5951 5.41197V5.56898C11.5951 5.74579 11.5248 5.91536 11.3998 6.04038C11.2748 6.1654 11.1052 6.23564 10.9284 6.23564C10.7516 6.23564 10.582 6.1654 10.457 6.04038C10.332 5.91536 10.2618 5.74579 10.2618 5.56898V5.41231C10.2618 5.2355 10.332 5.06593 10.457 4.9409C10.582 4.81588 10.7516 4.74564 10.9284 4.74564M12.0724 6.03998C11.8956 6.03998 11.726 6.11021 11.601 6.23524C11.476 6.36026 11.4058 6.52983 11.4058 6.70664C11.4058 6.88345 11.476 7.05302 11.601 7.17805C11.726 7.30307 11.8956 7.37331 12.0724 7.37331H12.2314C12.4082 7.37331 12.5778 7.30307 12.7028 7.17805C12.8278 7.05302 12.8981 6.88345 12.8981 6.70664C12.8981 6.52983 12.8278 6.36026 12.7028 6.23524C12.5778 6.11021 12.4082 6.03998 12.2314 6.03998H12.0724Z" fill="#FBFFE6"/>
</svg>
