<svg width="24" height="14" viewBox="0 0 24 14" fill="none" xmlns="http://www.w3.org/2000/svg">
<path d="M15.47 6.29299C15.3772 6.20008 15.2669 6.12636 15.1456 6.07606C15.0243 6.02575 14.8942 5.99983 14.7629 5.99978C14.6315 5.99974 14.5014 6.02556 14.3801 6.07579C14.2587 6.12601 14.1484 6.19964 14.0555 6.29249C13.9626 6.38533 13.8889 6.49557 13.8386 6.6169C13.7883 6.73823 13.7623 6.86828 13.7623 6.99963C13.7623 7.13098 13.7881 7.26105 13.8383 7.38242C13.8885 7.50379 13.9622 7.61408 14.055 7.70699C14.2425 7.89463 14.4969 8.0001 14.7621 8.00019C15.0274 8.00028 15.2819 7.895 15.4695 7.70749C15.6571 7.51998 15.7626 7.26561 15.7627 7.00034C15.7628 6.73507 15.6575 6.48063 15.47 6.29299ZM16.177 4.17199C16.2692 4.07648 16.3796 4.0003 16.5016 3.94789C16.6236 3.89548 16.7548 3.86789 16.8876 3.86674C17.0204 3.86558 17.1521 3.89088 17.275 3.94117C17.3979 3.99145 17.5095 4.0657 17.6034 4.15959C17.6973 4.25348 17.7715 4.36514 17.8218 4.48803C17.8721 4.61093 17.8974 4.74261 17.8962 4.87539C17.8951 5.00817 17.8675 5.13939 17.8151 5.26139C17.7627 5.3834 17.6865 5.49374 17.591 5.58599C17.4024 5.76815 17.1498 5.86894 16.8876 5.86666C16.6254 5.86438 16.3746 5.75921 16.1892 5.57381C16.0038 5.3884 15.8986 5.13759 15.8963 4.87539C15.894 4.61319 15.9948 4.36059 16.177 4.17199ZM19.712 6.29299C19.6198 6.19748 19.5094 6.12129 19.3874 6.06889C19.2654 6.01648 19.1342 5.98889 19.0014 5.98774C18.8686 5.98658 18.7369 6.01188 18.614 6.06217C18.4911 6.11245 18.3795 6.1867 18.2856 6.28059C18.1917 6.37449 18.1175 6.48614 18.0672 6.60903C18.0169 6.73193 17.9916 6.86361 17.9928 6.99639C17.9939 7.12917 18.0215 7.26039 18.0739 7.38239C18.1263 7.5044 18.2025 7.61474 18.298 7.70699C18.4866 7.88914 18.7392 7.98994 19.0014 7.98766C19.2636 7.98538 19.5144 7.88021 19.6998 7.69481C19.8852 7.5094 19.9904 7.25858 19.9927 6.99639C19.995 6.73419 19.8942 6.48159 19.712 6.29299ZM16.177 8.41399C16.2699 8.32114 16.3802 8.24751 16.5016 8.19729C16.6229 8.14706 16.753 8.12124 16.8844 8.12128C17.0157 8.12133 17.1458 8.14725 17.2671 8.19756C17.3884 8.24786 17.4987 8.32158 17.5915 8.41449C17.6843 8.5074 17.758 8.61769 17.8082 8.73905C17.8584 8.86042 17.8842 8.99049 17.8842 9.12184C17.8842 9.25319 17.8582 9.38324 17.8079 9.50457C17.7576 9.62591 17.6839 9.73614 17.591 9.82899C17.4034 10.0165 17.1489 10.1218 16.8836 10.1217C16.6184 10.1216 16.364 10.0161 16.1765 9.82849C15.989 9.64085 15.8837 9.3864 15.8838 9.12113C15.8839 8.85586 15.9894 8.60149 16.177 8.41399ZM6 7.99999H4V5.99999H6V3.99999H8V5.99999H10V7.99999H8V9.99999H6V7.99999Z" fill="#FBFFE6"/>
<path fill-rule="evenodd" clip-rule="evenodd" d="M7 0C5.14348 2.76642e-08 3.36301 0.737498 2.05025 2.05025C0.737498 3.36301 0 5.14348 0 7C0 8.85652 0.737498 10.637 2.05025 11.9497C3.36301 13.2625 5.14348 14 7 14H17C17.9193 14 18.8295 13.8189 19.6788 13.4672C20.5281 13.1154 21.2997 12.5998 21.9497 11.9497C22.5998 11.2997 23.1154 10.5281 23.4672 9.67878C23.8189 8.8295 24 7.91925 24 7C24 6.08075 23.8189 5.17049 23.4672 4.32122C23.1154 3.47194 22.5998 2.70026 21.9497 2.05025C21.2997 1.40024 20.5281 0.884626 19.6788 0.532843C18.8295 0.18106 17.9193 -1.36979e-08 17 0H7ZM17 2H7C5.67392 2 4.40215 2.52678 3.46447 3.46447C2.52678 4.40215 2 5.67392 2 7C2 8.32608 2.52678 9.59785 3.46447 10.5355C4.40215 11.4732 5.67392 12 7 12H17C18.3261 12 19.5979 11.4732 20.5355 10.5355C21.4732 9.59785 22 8.32608 22 7C22 5.67392 21.4732 4.40215 20.5355 3.46447C19.5979 2.52678 18.3261 2 17 2Z" fill="#FBFFE6"/>
</svg>
