<svg width="12" height="12" viewBox="0 0 12 12" fill="none" xmlns="http://www.w3.org/2000/svg">
<path d="M2 6.16663C2 5.96964 2.0388 5.77459 2.11418 5.5926C2.18956 5.41061 2.30005 5.24525 2.43934 5.10597C2.57863 4.96668 2.74399 4.85619 2.92597 4.78081C3.10796 4.70542 3.30302 4.66663 3.5 4.66663C3.69698 4.66663 3.89204 4.70542 4.07403 4.78081C4.25601 4.85619 4.42137 4.96668 4.56066 5.10597C4.69995 5.24525 4.81044 5.41061 4.88582 5.5926C4.9612 5.77459 5 5.96964 5 6.16663C5 6.56445 4.84196 6.94598 4.56066 7.22729C4.27936 7.50859 3.89782 7.66663 3.5 7.66663C3.10218 7.66663 2.72064 7.50859 2.43934 7.22729C2.15804 6.94598 2 6.56445 2 6.16663ZM3.5 5.66663C3.36739 5.66663 3.24021 5.7193 3.14645 5.81307C3.05268 5.90684 3 6.03402 3 6.16663C3 6.29923 3.05268 6.42641 3.14645 6.52018C3.24021 6.61395 3.36739 6.66663 3.5 6.66663C3.63261 6.66663 3.75979 6.61395 3.85355 6.52018C3.94732 6.42641 4 6.29923 4 6.16663C4 6.03402 3.94732 5.90684 3.85355 5.81307C3.75979 5.7193 3.63261 5.66663 3.5 5.66663ZM5.66667 6.16663C5.66667 6.03402 5.71935 5.90684 5.81311 5.81307C5.90688 5.7193 6.03406 5.66663 6.16667 5.66663H7.83333C7.96594 5.66663 8.09312 5.7193 8.18689 5.81307C8.28065 5.90684 8.33333 6.03402 8.33333 6.16663C8.33333 6.29923 8.28065 6.42641 8.18689 6.52018C8.09312 6.61395 7.96594 6.66663 7.83333 6.66663H6.16667C6.03406 6.66663 5.90688 6.61395 5.81311 6.52018C5.71935 6.42641 5.66667 6.29923 5.66667 6.16663ZM2 3.16663C2 3.03402 2.05268 2.90684 2.14645 2.81307C2.24021 2.7193 2.36739 2.66663 2.5 2.66663H7.83333C7.96594 2.66663 8.09312 2.7193 8.18689 2.81307C8.28065 2.90684 8.33333 3.03402 8.33333 3.16663C8.33333 3.29923 8.28065 3.42641 8.18689 3.52018C8.09312 3.61395 7.96594 3.66663 7.83333 3.66663H2.5C2.36739 3.66663 2.24021 3.61395 2.14645 3.52018C2.05268 3.42641 2 3.29923 2 3.16663Z" fill="#FBFFE6"/>
<path d="M2.16667 0C1.59203 0 1.04093 0.228273 0.634602 0.634602C0.228273 1.04093 0 1.59203 0 2.16667V8.16667C0 8.7413 0.228273 9.2924 0.634602 9.69873C1.04093 10.1051 1.59203 10.3333 2.16667 10.3333H8.16667C8.7413 10.3333 9.2924 10.1051 9.69873 9.69873C10.1051 9.2924 10.3333 8.7413 10.3333 8.16667V2.16667C10.3333 1.59203 10.1051 1.04093 9.69873 0.634602C9.2924 0.228273 8.7413 0 8.16667 0H2.16667ZM1 2.16667C1 1.52267 1.52267 1 2.16667 1H8.16667C8.81067 1 9.33333 1.52267 9.33333 2.16667V8.16667C9.33388 8.41603 9.25428 8.65896 9.10628 8.85965C8.95829 9.06034 8.74972 9.20817 8.51133 9.28133C8.402 9.31511 8.28711 9.33244 8.16667 9.33333H2.16667C1.85725 9.33333 1.5605 9.21042 1.34171 8.99162C1.12292 8.77283 1 8.47609 1 8.16667V2.16667Z" fill="#FBFFE6"/>
<path d="M3.83448 12C3.47052 12.0001 3.11238 11.9086 2.79313 11.7338C2.47387 11.5591 2.20379 11.3067 2.00781 11H8.50115C9.16419 11 9.80007 10.7366 10.2689 10.2678C10.7378 9.79892 11.0011 9.16303 11.0011 8.49999V2.00732C11.3078 2.2033 11.5602 2.47339 11.735 2.79264C11.9098 3.11189 12.0013 3.47003 12.0011 3.83399V8.50066C12.001 9.4288 11.6321 10.3189 10.9758 10.9751C10.3194 11.6313 9.42929 12 8.50115 12H3.83448Z" fill="#FBFFE6"/>
</svg>
