<svg  viewBox="0 0 16 16" fill="none" xmlns="http://www.w3.org/2000/svg">
<g clip-path="url(#clip0_55_2574)">
<path d="M11.333 1.33331H4.66634C2.82539 1.33331 1.33301 2.8257 1.33301 4.66665V11.3333C1.33301 13.1743 2.82539 14.6666 4.66634 14.6666H11.333C13.174 14.6666 14.6663 13.1743 14.6663 11.3333V4.66665C14.6663 2.8257 13.174 1.33331 11.333 1.33331Z"  stroke-width="1.66667" stroke-linecap="round" stroke-linejoin="round"/>
<path d="M10.6668 7.58002C10.7491 8.13485 10.6543 8.7015 10.396 9.19936C10.1376 9.69723 9.72889 10.101 9.22788 10.3531C8.72687 10.6053 8.15909 10.6931 7.60532 10.604C7.05155 10.5149 6.53997 10.2534 6.14336 9.85679C5.74674 9.46018 5.48528 8.9486 5.39618 8.39483C5.30707 7.84105 5.39484 7.27328 5.64701 6.77227C5.89919 6.27125 6.30292 5.86251 6.80079 5.60418C7.29865 5.34585 7.8653 5.25108 8.42013 5.33335C8.98608 5.41727 9.51003 5.68099 9.91459 6.08556C10.3192 6.49012 10.5829 7.01407 10.6668 7.58002Z"  stroke-width="1.66667" stroke-linecap="round" stroke-linejoin="round"/>
<path d="M11.667 4.33331H11.6737"  stroke-width="1.66667" stroke-linecap="round" stroke-linejoin="round"/>
</g>
<defs>
<clipPath id="clip0_55_2574">
<rect width="16" height="16" fill="white"/>
</clipPath>
</defs>
</svg>
