<svg width="16" height="16" viewBox="0 0 16 16" fill="none" xmlns="http://www.w3.org/2000/svg">
<path d="M6.0026 14.6667V11.3333C6.0026 10.7047 6.0026 10.3907 5.80727 10.1953C5.61194 10 5.29794 10 4.66927 10H4.33594C3.3926 10 2.92127 10 2.62927 10.2933C2.33594 10.586 2.33594 11.0573 2.33594 12V14.6667H6.0026ZM6.0026 14.6667H10.0026M6.0026 14.6667V10.6667C6.0026 9.72401 6.0026 9.25267 6.29594 8.96001C6.58794 8.66667 7.05927 8.66667 8.0026 8.66667C8.94594 8.66667 9.4166 8.66667 9.70927 8.96001C10.0026 9.25267 10.0026 9.72401 10.0026 10.6667V14.6667M10.0026 14.6667H13.6693V13.3333C13.6693 12.3907 13.6693 11.9193 13.3759 11.6267C13.0833 11.3333 12.6119 11.3333 11.6693 11.3333H11.3359C10.7073 11.3333 10.3933 11.3333 10.1979 11.5287C10.0026 11.724 10.0026 12.038 10.0026 12.6667V14.6667ZM1.33594 14.6667H14.6693M8.46327 1.71867L8.9326 2.66534C8.97242 2.73627 9.02671 2.79803 9.09194 2.84662C9.15718 2.8952 9.23191 2.92952 9.31127 2.94734L10.1619 3.08934C10.7059 3.18067 10.8339 3.57867 10.4419 3.97134L9.7806 4.63801C9.72264 4.70364 9.6801 4.78141 9.6561 4.86562C9.63211 4.94983 9.62727 5.03835 9.64194 5.12467L9.83127 5.95001C9.9806 6.60334 9.6366 6.85601 9.06327 6.51467L8.26594 6.03867C8.18437 5.99636 8.09383 5.97428 8.00194 5.97428C7.91005 5.97428 7.8195 5.99636 7.73794 6.03867L6.9406 6.51467C6.36994 6.85601 6.02327 6.60067 6.1726 5.95001L6.36194 5.12467C6.37661 5.03835 6.37177 4.94983 6.34777 4.86562C6.32378 4.78141 6.28124 4.70364 6.22327 4.63801L5.5626 3.97134C5.17327 3.57867 5.2986 3.18067 5.8426 3.08934L6.6926 2.94734C6.77154 2.9291 6.84579 2.89452 6.91055 2.84584C6.97531 2.79715 7.02915 2.73544 7.0686 2.66467L7.53794 1.71801C7.79394 1.20467 8.20994 1.20467 8.46327 1.71801"  stroke-linecap="round" stroke-linejoin="round"/>
</svg>
