<svg width="16" height="16" viewBox="0 0 16 16" fill="none" xmlns="http://www.w3.org/2000/svg">
<path d="M6.0013 7.99996C6.35492 7.99996 6.69406 7.85948 6.94411 7.60944C7.19416 7.35939 7.33464 7.02025 7.33464 6.66663C7.33464 6.313 7.19416 5.97387 6.94411 5.72382C6.69406 5.47377 6.35492 5.33329 6.0013 5.33329C5.64768 5.33329 5.30854 5.47377 5.05849 5.72382C4.80844 5.97387 4.66797 6.313 4.66797 6.66663C4.66797 7.02025 4.80844 7.35939 5.05849 7.60944C5.30854 7.85948 5.64768 7.99996 6.0013 7.99996ZM14.3346 4.33329L8.0013 0.666626L1.66797 4.33329V11.6666L8.0013 15.3333L14.3346 11.6666V4.33329ZM8.0013 2.20729L13.0013 5.10196V9.68863L9.95997 7.86463L4.64597 11.85L3.0013 10.898V5.10196L8.0013 2.20729ZM8.0013 13.7926L5.89997 12.576L10.0426 9.46929L12.708 11.068L8.0013 13.7926Z" fill="#FBFFE6"/>
</svg>
