<svg  viewBox="0 0 24 29" fill="none" xmlns="http://www.w3.org/2000/svg">
<g clip-path="url(#clip0_319_8023)">
<path d="M20.3601 2.67948C19.0538 1.20698 16.6924 0.575684 13.6715 0.575684H4.90404C4.60513 0.575638 4.31602 0.681074 4.0887 0.873026C3.86139 1.06498 3.71079 1.33085 3.664 1.62281L0.0133797 24.5204C-0.0591828 24.9719 0.294348 25.3808 0.757098 25.3808H6.16985L7.52922 16.8537L7.48704 17.1207C7.58388 16.518 8.10513 16.0734 8.72238 16.0734H11.2945C16.3474 16.0734 20.304 14.0437 21.4597 8.17212C21.494 7.99847 21.5238 7.82945 21.5494 7.66432C21.4036 7.58792 21.4036 7.58792 21.5494 7.66432C21.8936 5.49413 21.5471 4.0169 20.3601 2.67948Z" fill="#27346A"/>
<path d="M9.60035 6.88254C9.74829 6.81275 9.91016 6.77663 10.0741 6.77685H16.9476C17.7616 6.77685 18.5208 6.82923 19.2145 6.93966C19.4086 6.97029 19.6018 7.00684 19.7936 7.04925C20.0655 7.10859 20.3343 7.18122 20.5989 7.26685C20.94 7.3795 21.2576 7.51069 21.5495 7.66432C21.8936 5.4933 21.5471 4.0169 20.3601 2.67948C19.0531 1.20698 16.6924 0.575684 13.6715 0.575684H4.90329C4.28594 0.575684 3.76076 1.02016 3.66401 1.62281L0.0133802 24.5196C-0.0591823 24.9718 0.294349 25.3802 0.756349 25.3802H6.16985L8.99013 7.69288C9.01788 7.51903 9.08792 7.35446 9.19421 7.2133C9.30051 7.07215 9.43988 6.95864 9.60035 6.88254Z" fill="#27346A"/>
<path d="M21.461 8.17211C20.3053 14.0428 16.3488 16.0734 11.2958 16.0734H8.72294C8.10569 16.0734 7.58435 16.518 7.48844 17.1207L5.79729 27.7232C5.7341 28.1183 6.0431 28.4764 6.44735 28.4764H11.0102C11.2715 28.4763 11.5243 28.384 11.723 28.2161C11.9217 28.0482 12.0533 27.8157 12.0942 27.5603L12.1386 27.3304L12.9986 21.9403L13.054 21.6424C13.0948 21.3871 13.2264 21.1546 13.4251 20.9867C13.6238 20.8188 13.8766 20.7265 14.1379 20.7264H14.8208C19.2408 20.7264 22.7018 18.9505 23.7132 13.8145C24.1353 11.6681 23.9169 9.87612 22.8002 8.61742C22.4614 8.23617 22.0408 7.92131 21.5508 7.66431C21.5242 7.83027 21.4954 7.99845 21.461 8.17211Z" fill="#2790C3"/>
<path d="M20.3404 7.18737C20.1602 7.13533 19.9783 7.08926 19.7949 7.04923C19.603 7.00749 19.4099 6.9712 19.2158 6.94038C18.5213 6.82921 17.7627 6.77673 16.948 6.77673H10.0753C9.9113 6.77646 9.74936 6.81288 9.60159 6.88326C9.44092 6.95909 9.30136 7.07252 9.19502 7.21372C9.08867 7.35492 9.01874 7.51964 8.99128 7.6936L7.53047 16.8537L7.48828 17.1207C7.58437 16.518 8.10562 16.0734 8.72297 16.0734H11.2958C16.3488 16.0734 20.3052 14.0437 21.461 8.1721C21.4954 7.99844 21.5243 7.83017 21.5508 7.6643C21.2582 7.51163 20.9413 7.37938 20.6002 7.26757C20.5141 7.23934 20.4275 7.2126 20.3405 7.18737" fill="#1F264F"/>
</g>
<defs>
<clipPath id="clip0_319_8023">
<rect width="24" height="28" fill="white" transform="translate(0 0.5)"/>
</clipPath>
</defs>
</svg>
