<svg  viewBox="0 0 24 24" fill="none" xmlns="http://www.w3.org/2000/svg">
<path d="M7 2C7 2 8.5 1.5 12 1.5C15.5 1.5 17 2 17 2M9.4225 7.0715C10.2807 7.02032 11.1403 6.99647 12 7C13.0695 7 13.913 7.028 14.5775 7.0715M6 16.5C6 18.0913 6.63214 19.6174 7.75736 20.7426C8.88258 21.8679 10.4087 22.5 12 22.5C13.5913 22.5 15.1174 21.8679 16.2426 20.7426C17.3679 19.6174 18 18.0913 18 16.5C18 14.9087 17.3679 13.3826 16.2426 12.2574C15.1174 11.1321 13.5913 10.5 12 10.5C10.4087 10.5 8.88258 11.1321 7.75736 12.2574C6.63214 13.3826 6 14.9087 6 16.5Z" stroke="#FBFFE6" stroke-width="1.5" stroke-linecap="round" stroke-linejoin="round"/>
<path d="M11.3315 10.537C8.6685 5.9785 7 2 7 2C7 2 3.425 4.294 1.79 7.805C1.59 8.235 1.6495 8.731 1.9175 9.122C2.6405 10.176 4.243 12.422 6.268 14.719M17.7305 14.719C19.7555 12.4225 21.3585 10.176 22.0815 9.122C22.3495 8.731 22.409 8.235 22.209 7.805C20.575 4.294 16.9995 2 16.9995 2C16.9995 2 15.3315 5.9785 12.6685 10.537M11.445 13.32C11.4977 13.2183 11.5773 13.133 11.6752 13.0734C11.7731 13.0139 11.8854 12.9824 12 12.9824C12.1146 12.9824 12.2269 13.0139 12.3248 13.0734C12.4227 13.133 12.5023 13.2183 12.555 13.32L13.31 14.776L14.92 15.093C15.0284 15.1144 15.1291 15.164 15.2121 15.237C15.295 15.31 15.3571 15.4036 15.392 15.5084C15.427 15.6132 15.4336 15.7253 15.4111 15.8335C15.3886 15.9416 15.3378 16.0419 15.264 16.124L14.12 17.3965L14.3295 19.094C14.3434 19.2062 14.3266 19.32 14.2809 19.4234C14.2352 19.5268 14.1624 19.6159 14.0701 19.6812C13.9778 19.7464 13.8695 19.7854 13.7568 19.794C13.6441 19.8026 13.5311 19.7805 13.43 19.73L12 19.016L10.57 19.73C10.4689 19.7806 10.3559 19.8029 10.2431 19.7943C10.1303 19.7858 10.0219 19.7468 9.92953 19.6815C9.83715 19.6163 9.76422 19.5271 9.71852 19.4237C9.67281 19.3202 9.65604 19.2063 9.67 19.094L9.88 17.3965L8.736 16.124C8.66217 16.0419 8.61142 15.9416 8.58893 15.8335C8.56644 15.7253 8.57301 15.6132 8.60797 15.5084C8.64293 15.4036 8.70503 15.31 8.78794 15.237C8.87086 15.164 8.97163 15.1144 9.08 15.093L10.69 14.776L11.445 13.32Z" stroke="#FBFFE6" stroke-width="1.5" stroke-linecap="round" stroke-linejoin="round"/>
</svg>
