<svg  viewBox="0 0 16 15" fill="none" xmlns="http://www.w3.org/2000/svg">
<path d="M7.9974 8.66671C8.70464 8.66671 9.38292 8.38576 9.88301 7.88566C10.3831 7.38556 10.6641 6.70728 10.6641 6.00004C10.6641 5.2928 10.3831 4.61452 9.88301 4.11442C9.38292 3.61433 8.70464 3.33337 7.9974 3.33337C7.29015 3.33337 6.61187 3.61433 6.11178 4.11442C5.61168 4.61452 5.33073 5.2928 5.33073 6.00004C5.33073 6.70728 5.61168 7.38556 6.11178 7.88566C6.61187 8.38576 7.29015 8.66671 7.9974 8.66671ZM7.9974 8.66671C6.93653 8.66671 5.91911 9.08813 5.16897 9.83828C4.41882 10.5884 3.9974 11.6058 3.9974 12.6667V14.6667M7.9974 8.66671C9.05826 8.66671 10.0757 9.08813 10.8258 9.83828C11.576 10.5884 11.9974 11.6058 11.9974 12.6667V14.6667M8.66406 3.33337C8.9334 2.22404 10.0074 1.33337 11.3307 1.33337C12.7787 1.33337 13.9841 2.52671 13.9974 4.00004C13.9841 5.47337 12.7787 6.66671 11.3307 6.66671M11.3307 6.66671H10.6641M11.3307 6.66671C13.5227 6.66671 15.3307 8.45737 15.3307 10.6667V12M7.33073 3.33337C7.0614 2.22404 5.9874 1.33337 4.66406 1.33337C3.21606 1.33337 2.01073 2.52671 1.9974 4.00004C2.01073 5.47337 3.21606 6.66671 4.66406 6.66671M4.66406 6.66671H5.33073M4.66406 6.66671C2.47206 6.66671 0.664062 8.45737 0.664062 10.6667V12" stroke="currentColor" stroke-width="1.5" stroke-linecap="round" stroke-linejoin="round"/>
</svg>
