<svg  viewBox="0 0 13 13" fill="none" xmlns="http://www.w3.org/2000/svg">
<path d="M6.07277 1.45873C6.31277 0.721928 7.35517 0.721928 7.59437 1.45873L8.45037 4.09233C8.50267 4.25272 8.60433 4.39247 8.74083 4.49161C8.87733 4.59075 9.04167 4.6442 9.21037 4.64433H11.98C12.7552 4.64433 13.0768 5.63633 12.4504 6.09233L10.2104 7.71953C10.0736 7.81875 9.97175 7.95874 9.91944 8.11941C9.86713 8.28008 9.86703 8.4532 9.91917 8.61393L10.7752 11.2475C11.0152 11.9843 10.1712 12.5979 9.54317 12.1419L7.30317 10.5147C7.16654 10.4155 7.00202 10.3621 6.83317 10.3621C6.66433 10.3621 6.49981 10.4155 6.36317 10.5147L4.12317 12.1419C3.49597 12.5979 2.65277 11.9843 2.89197 11.2475L3.74797 8.61393C3.80011 8.4532 3.80002 8.28008 3.74771 8.11941C3.69539 7.95874 3.59355 7.81875 3.45677 7.71953L1.21757 6.09313C0.591173 5.63713 0.913573 4.64513 1.68797 4.64513H4.45677C4.62561 4.64517 4.79013 4.5918 4.92679 4.49265C5.06345 4.39349 5.16523 4.25365 5.21757 4.09313L6.07357 1.45953L6.07277 1.45873Z" />
</svg>
