<svg width="16" height="16" viewBox="0 0 16 16" fill="none" xmlns="http://www.w3.org/2000/svg">
<path d="M9.99932 14V10.6667C9.99932 10.4899 9.92908 10.3203 9.80405 10.1953C9.67903 10.0703 9.50946 10 9.33265 10H6.66598C6.48917 10 6.3196 10.0703 6.19458 10.1953C6.06955 10.3203 5.99932 10.4899 5.99932 10.6667V14M11.8486 6.87337C11.7097 6.74033 11.5247 6.66607 11.3323 6.66607C11.1399 6.66607 10.955 6.74033 10.816 6.87337C10.506 7.16905 10.094 7.33401 9.66565 7.33401C9.23726 7.33401 8.82531 7.16905 8.51532 6.87337C8.37637 6.74053 8.19155 6.66639 7.99932 6.66639C7.80708 6.66639 7.62226 6.74053 7.48332 6.87337C7.17329 7.16925 6.7612 7.33433 6.33265 7.33433C5.9041 7.33433 5.49201 7.16925 5.18198 6.87337C5.04301 6.74033 4.85804 6.66607 4.66565 6.66607C4.47326 6.66607 4.28829 6.74033 4.14932 6.87337C3.84988 7.15912 3.45483 7.32322 3.04107 7.33374C2.6273 7.34426 2.22443 7.20045 1.91085 6.93029C1.59728 6.66014 1.39545 6.28297 1.34464 5.8722C1.29383 5.46143 1.39769 5.04646 1.63598 4.70804L3.56198 1.91871C3.68419 1.73838 3.84871 1.59074 4.04117 1.4887C4.23363 1.38667 4.44815 1.33333 4.66598 1.33337H11.3326C11.5498 1.33329 11.7638 1.38627 11.9558 1.4877C12.1479 1.58913 12.3123 1.73594 12.4346 1.91537L14.3646 4.71004C14.603 5.04872 14.7067 5.46402 14.6556 5.875C14.6045 6.28598 14.4022 6.66321 14.0881 6.93317C13.774 7.20313 13.3707 7.34649 12.9567 7.33531C12.5427 7.32414 12.1477 7.15922 11.8486 6.87271"  stroke-width="1.5" stroke-linecap="round" stroke-linejoin="round"/>
<path d="M2.66406 7.30005V12.6667C2.66406 13.0203 2.80454 13.3595 3.05459 13.6095C3.30464 13.8596 3.64377 14 3.9974 14H11.9974C12.351 14 12.6902 13.8596 12.9402 13.6095C13.1903 13.3595 13.3307 13.0203 13.3307 12.6667V7.30005"  stroke-width="1.5" stroke-linecap="round" stroke-linejoin="round"/>
</svg>
