<svg  viewBox="0 0 16 16" fill="none" xmlns="http://www.w3.org/2000/svg">
<g clip-path="url(#clip0_391_345)">
<path d="M1.25 11.75C1.25 12.2141 1.43437 12.6592 1.76256 12.9874C2.09075 13.3156 2.53587 13.5 3 13.5C3.46413 13.5 3.90925 13.3156 4.23744 12.9874C4.56563 12.6592 4.75 12.2141 4.75 11.75C4.75 11.2859 4.56563 10.8408 4.23744 10.5126C3.90925 10.1844 3.46413 10 3 10C2.53587 10 2.09075 10.1844 1.76256 10.5126C1.43437 10.8408 1.25 11.2859 1.25 11.75Z"  stroke-linecap="round" stroke-linejoin="round"/>
<path d="M5.5 15.5C5.25834 15.0469 4.89808 14.668 4.45774 14.4038C4.01739 14.1396 3.51352 14 3 14C2.48648 14 1.98261 14.1396 1.54226 14.4038C1.10192 14.668 0.741659 15.0469 0.5 15.5M11.25 11.75C11.25 11.9798 11.2953 12.2074 11.3832 12.4197C11.4712 12.632 11.6001 12.8249 11.7626 12.9874C11.9251 13.1499 12.118 13.2788 12.3303 13.3668C12.5426 13.4547 12.7702 13.5 13 13.5C13.2298 13.5 13.4574 13.4547 13.6697 13.3668C13.882 13.2788 14.0749 13.1499 14.2374 12.9874C14.3999 12.8249 14.5288 12.632 14.6168 12.4197C14.7047 12.2074 14.75 11.9798 14.75 11.75C14.75 11.2859 14.5656 10.8408 14.2374 10.5126C13.9092 10.1844 13.4641 10 13 10C12.5359 10 12.0908 10.1844 11.7626 10.5126C11.4344 10.8408 11.25 11.2859 11.25 11.75Z"  stroke-linecap="round" stroke-linejoin="round"/>
<path d="M15.5007 15.5C15.259 15.0469 14.8987 14.668 14.4584 14.4038C14.0181 14.1396 13.5142 14 13.0007 14C12.4871 14 11.9833 14.1396 11.5429 14.4038C11.1026 14.668 10.7423 15.0469 10.5007 15.5M10.1667 5.5C9.89943 5.1864 9.56729 4.93455 9.19321 4.76184C8.81913 4.58914 8.41202 4.4997 8 4.4997C7.58798 4.4997 7.18087 4.58914 6.80679 4.76184C6.43271 4.93455 6.10057 5.1864 5.83333 5.5M6.03467 13.138C7.31151 13.6246 8.72346 13.6203 9.99733 13.126M4.23333 4C3.68612 4.51267 3.24994 5.13219 2.9518 5.82022C2.65365 6.50825 2.49988 7.25015 2.5 8C2.5 8.16867 2.51 8.33333 2.52533 8.5M13.4753 8.5C13.49 8.33467 13.5007 8.16667 13.5007 8C13.5008 7.25015 13.347 6.50825 13.0489 5.82022C12.7507 5.13219 12.3145 4.51267 11.7673 4M6.25067 2.25C6.25067 2.47981 6.29593 2.70738 6.38388 2.9197C6.47182 3.13202 6.60073 3.32493 6.76323 3.48744C6.92573 3.64994 7.11865 3.77884 7.33097 3.86679C7.54329 3.95474 7.77085 4 8.00067 4C8.23048 4 8.45804 3.95474 8.67036 3.86679C8.88268 3.77884 9.0756 3.64994 9.2381 3.48744C9.40061 3.32493 9.52951 3.13202 9.61746 2.9197C9.7054 2.70738 9.75067 2.47981 9.75067 2.25C9.75067 1.78587 9.56629 1.34075 9.2381 1.01256C8.90991 0.684374 8.4648 0.5 8.00067 0.5C7.53654 0.5 7.09142 0.684374 6.76323 1.01256C6.43504 1.34075 6.25067 1.78587 6.25067 2.25Z"  stroke-linecap="round" stroke-linejoin="round"/>
</g>
<defs>
<clipPath id="clip0_391_345">
<rect width="16" height="16" fill="white"/>
</clipPath>
</defs>
</svg>



