<svg width="16" height="16" viewBox="0 0 16 16" fill="none" xmlns="http://www.w3.org/2000/svg">
<path d="M2 15.9999C1.45 15.9999 0.979333 15.8043 0.588 15.4129C0.196666 15.0216 0.000666667 14.5506 0 13.9999V11.9999C0 11.7166 0.0960001 11.4793 0.288 11.2879C0.48 11.0966 0.717333 11.0006 1 10.9999C1.28267 10.9993 1.52033 11.0953 1.713 11.2879C1.90567 11.4806 2.00133 11.7179 2 11.9999V13.9999H14V11.9999C14 11.7166 14.096 11.4793 14.288 11.2879C14.48 11.0966 14.7173 11.0006 15 10.9999C15.2827 10.9993 15.5203 11.0953 15.713 11.2879C15.9057 11.4806 16.0013 11.7179 16 11.9999V13.9999C16 14.5499 15.8043 15.0209 15.413 15.4129C15.0217 15.8049 14.5507 16.0006 14 15.9999H2ZM7 3.84994L5.125 5.72494C4.925 5.92494 4.68767 6.02094 4.413 6.01294C4.13833 6.00494 3.90067 5.90061 3.7 5.69994C3.51667 5.49994 3.42067 5.26661 3.412 4.99994C3.40333 4.73327 3.49933 4.49994 3.7 4.29994L7.3 0.699942C7.4 0.599942 7.50833 0.529275 7.625 0.487942C7.74167 0.446609 7.86667 0.425609 8 0.424942C8.13333 0.424275 8.25833 0.445275 8.375 0.487942C8.49167 0.530609 8.6 0.601275 8.7 0.699942L12.3 4.29994C12.5 4.49994 12.596 4.73327 12.588 4.99994C12.58 5.26661 12.484 5.49994 12.3 5.69994C12.1 5.89994 11.8627 6.00427 11.588 6.01294C11.3133 6.02161 11.0757 5.92561 10.875 5.72494L9 3.84994V10.9999C9 11.2833 8.904 11.5209 8.712 11.7129C8.52 11.9049 8.28267 12.0006 8 11.9999C7.71733 11.9993 7.48 11.9033 7.288 11.7119C7.096 11.5206 7 11.2833 7 10.9999V3.84994Z" fill="#FBFFE6"/>
</svg>
