<svg width="17" height="16" viewBox="0 0 17 16" fill="none" xmlns="http://www.w3.org/2000/svg">
<path d="M12.9635 4.66667V2.66667C12.9635 2.48986 12.8933 2.32029 12.7683 2.19526C12.6433 2.07024 12.4737 2 12.2969 2H3.63021C3.27659 2 2.93745 2.14048 2.6874 2.39052C2.43735 2.64057 2.29688 2.97971 2.29688 3.33333C2.29688 3.68696 2.43735 4.02609 2.6874 4.27614C2.93745 4.52619 3.27659 4.66667 3.63021 4.66667H13.6302C13.807 4.66667 13.9766 4.7369 14.1016 4.86193C14.2266 4.98695 14.2969 5.15652 14.2969 5.33333V8M14.2969 8H12.2969C11.9433 8 11.6041 8.14048 11.3541 8.39052C11.104 8.64057 10.9635 8.97971 10.9635 9.33333C10.9635 9.68696 11.104 10.0261 11.3541 10.2761C11.6041 10.5262 11.9433 10.6667 12.2969 10.6667H14.2969C14.4737 10.6667 14.6433 10.5964 14.7683 10.4714C14.8933 10.3464 14.9635 10.1768 14.9635 10V8.66667C14.9635 8.48986 14.8933 8.32029 14.7683 8.19526C14.6433 8.07024 14.4737 8 14.2969 8Z" stroke="#C1FF00" stroke-width="1.5" stroke-linecap="round" stroke-linejoin="round"/>
<path d="M2.29688 3.33337V12.6667C2.29688 13.0203 2.43735 13.3595 2.6874 13.6095C2.93745 13.8596 3.27659 14 3.63021 14H13.6302C13.807 14 13.9766 13.9298 14.1016 13.8048C14.2266 13.6798 14.2969 13.5102 14.2969 13.3334V10.6667" stroke="#C1FF00" stroke-width="1.5" stroke-linecap="round" stroke-linejoin="round"/>
</svg>
